<?xml version="1.0" standalone="no"?>
<svg xmlns:xlink="http://www.w3.org/1999/xlink" id="wave" style="transform:rotate(0deg); transition: 0.3s" viewBox="0 0 1440 340" version="1.1" xmlns="http://www.w3.org/2000/svg"><defs><linearGradient id="sw-gradient-0" x1="0" x2="0" y1="1" y2="0"><stop stop-color="rgba(34, 41, 84, 1)" offset="0%"/><stop stop-color="rgba(80, 95, 185, 1)" offset="100%"/></linearGradient></defs><path style="transform:translate(0, 0px); opacity:1" fill="url(#sw-gradient-0)" d="M0,0L26.7,51C53.3,102,107,204,160,226.7C213.3,249,267,193,320,158.7C373.3,125,427,113,480,136C533.3,159,587,215,640,226.7C693.3,238,747,204,800,181.3C853.3,159,907,147,960,147.3C1013.3,147,1067,159,1120,175.7C1173.3,193,1227,215,1280,198.3C1333.3,181,1387,125,1440,136C1493.3,147,1547,227,1600,260.7C1653.3,295,1707,283,1760,255C1813.3,227,1867,181,1920,147.3C1973.3,113,2027,91,2080,96.3C2133.3,102,2187,136,2240,141.7C2293.3,147,2347,125,2400,107.7C2453.3,91,2507,79,2560,85C2613.3,91,2667,113,2720,124.7C2773.3,136,2827,136,2880,164.3C2933.3,193,2987,249,3040,226.7C3093.3,204,3147,102,3200,96.3C3253.3,91,3307,181,3360,192.7C3413.3,204,3467,136,3520,102C3573.3,68,3627,68,3680,73.7C3733.3,79,3787,91,3813,96.3L3840,102L3840,340L3813.3,340C3786.7,340,3733,340,3680,340C3626.7,340,3573,340,3520,340C3466.7,340,3413,340,3360,340C3306.7,340,3253,340,3200,340C3146.7,340,3093,340,3040,340C2986.7,340,2933,340,2880,340C2826.7,340,2773,340,2720,340C2666.7,340,2613,340,2560,340C2506.7,340,2453,340,2400,340C2346.7,340,2293,340,2240,340C2186.7,340,2133,340,2080,340C2026.7,340,1973,340,1920,340C1866.7,340,1813,340,1760,340C1706.7,340,1653,340,1600,340C1546.7,340,1493,340,1440,340C1386.7,340,1333,340,1280,340C1226.7,340,1173,340,1120,340C1066.7,340,1013,340,960,340C906.7,340,853,340,800,340C746.7,340,693,340,640,340C586.7,340,533,340,480,340C426.7,340,373,340,320,340C266.7,340,213,340,160,340C106.7,340,53,340,27,340L0,340Z"/><defs><linearGradient id="sw-gradient-1" x1="0" x2="0" y1="1" y2="0"><stop stop-color="rgba(34, 41, 84, 1)" offset="0%"/><stop stop-color="rgba(80, 95, 185, 1)" offset="100%"/></linearGradient></defs><path style="transform:translate(0, 50px); opacity:0.9" fill="url(#sw-gradient-1)" d="M0,204L26.7,221C53.3,238,107,272,160,277.7C213.3,283,267,261,320,243.7C373.3,227,427,215,480,221C533.3,227,587,249,640,243.7C693.3,238,747,204,800,164.3C853.3,125,907,79,960,51C1013.3,23,1067,11,1120,45.3C1173.3,79,1227,159,1280,158.7C1333.3,159,1387,79,1440,73.7C1493.3,68,1547,136,1600,147.3C1653.3,159,1707,113,1760,130.3C1813.3,147,1867,227,1920,226.7C1973.3,227,2027,147,2080,96.3C2133.3,45,2187,23,2240,34C2293.3,45,2347,91,2400,141.7C2453.3,193,2507,249,2560,255C2613.3,261,2667,215,2720,215.3C2773.3,215,2827,261,2880,272C2933.3,283,2987,261,3040,232.3C3093.3,204,3147,170,3200,136C3253.3,102,3307,68,3360,90.7C3413.3,113,3467,193,3520,215.3C3573.3,238,3627,204,3680,170C3733.3,136,3787,102,3813,85L3840,68L3840,340L3813.3,340C3786.7,340,3733,340,3680,340C3626.7,340,3573,340,3520,340C3466.7,340,3413,340,3360,340C3306.7,340,3253,340,3200,340C3146.7,340,3093,340,3040,340C2986.7,340,2933,340,2880,340C2826.7,340,2773,340,2720,340C2666.7,340,2613,340,2560,340C2506.7,340,2453,340,2400,340C2346.7,340,2293,340,2240,340C2186.7,340,2133,340,2080,340C2026.7,340,1973,340,1920,340C1866.7,340,1813,340,1760,340C1706.7,340,1653,340,1600,340C1546.7,340,1493,340,1440,340C1386.7,340,1333,340,1280,340C1226.7,340,1173,340,1120,340C1066.7,340,1013,340,960,340C906.7,340,853,340,800,340C746.7,340,693,340,640,340C586.7,340,533,340,480,340C426.7,340,373,340,320,340C266.7,340,213,340,160,340C106.7,340,53,340,27,340L0,340Z"/><defs><linearGradient id="sw-gradient-2" x1="0" x2="0" y1="1" y2="0"><stop stop-color="rgba(80, 95, 185, 1)" offset="0%"/><stop stop-color="rgba(80, 95, 185, 1)" offset="100%"/></linearGradient></defs><path style="transform:translate(0, 100px); opacity:0.8" fill="url(#sw-gradient-2)" d="M0,102L26.7,124.7C53.3,147,107,193,160,181.3C213.3,170,267,102,320,85C373.3,68,427,102,480,124.7C533.3,147,587,159,640,175.7C693.3,193,747,215,800,209.7C853.3,204,907,170,960,147.3C1013.3,125,1067,113,1120,119C1173.3,125,1227,147,1280,147.3C1333.3,147,1387,125,1440,113.3C1493.3,102,1547,102,1600,90.7C1653.3,79,1707,57,1760,39.7C1813.3,23,1867,11,1920,56.7C1973.3,102,2027,204,2080,255C2133.3,306,2187,306,2240,260.7C2293.3,215,2347,125,2400,73.7C2453.3,23,2507,11,2560,39.7C2613.3,68,2667,136,2720,158.7C2773.3,181,2827,159,2880,170C2933.3,181,2987,227,3040,255C3093.3,283,3147,295,3200,260.7C3253.3,227,3307,147,3360,96.3C3413.3,45,3467,23,3520,62.3C3573.3,102,3627,204,3680,221C3733.3,238,3787,170,3813,136L3840,102L3840,340L3813.3,340C3786.7,340,3733,340,3680,340C3626.7,340,3573,340,3520,340C3466.7,340,3413,340,3360,340C3306.7,340,3253,340,3200,340C3146.7,340,3093,340,3040,340C2986.7,340,2933,340,2880,340C2826.7,340,2773,340,2720,340C2666.7,340,2613,340,2560,340C2506.7,340,2453,340,2400,340C2346.7,340,2293,340,2240,340C2186.7,340,2133,340,2080,340C2026.7,340,1973,340,1920,340C1866.7,340,1813,340,1760,340C1706.7,340,1653,340,1600,340C1546.7,340,1493,340,1440,340C1386.7,340,1333,340,1280,340C1226.7,340,1173,340,1120,340C1066.7,340,1013,340,960,340C906.7,340,853,340,800,340C746.7,340,693,340,640,340C586.7,340,533,340,480,340C426.7,340,373,340,320,340C266.7,340,213,340,160,340C106.7,340,53,340,27,340L0,340Z"/></svg>